<?xml version="1.0" standalone="no"?>
<!DOCTYPE svg PUBLIC "-//W3C//DTD SVG 20010904//EN"
 "http://www.w3.org/TR/2001/REC-SVG-20010904/DTD/svg10.dtd">
<svg version="1.0" xmlns="http://www.w3.org/2000/svg"
 width="453.000000pt" height="453.000000pt" viewBox="0 0 453.000000 453.000000"
 preserveAspectRatio="xMidYMid meet">
<metadata>
Created by potrace 1.11, written by Peter Selinger 2001-2013
</metadata>
<g transform="translate(0.000000,453.000000) scale(0.100000,-0.100000)"
fill="#000000" stroke="none">
<path d="M2099 4426 c-2 -2 -44 -7 -94 -11 -49 -3 -92 -8 -96 -10 -3 -3 -24
-7 -45 -9 -22 -3 -71 -13 -109 -22 -39 -9 -79 -18 -90 -21 -25 -5 -36 -8 -55
-15 -8 -3 -44 -15 -80 -26 -107 -33 -342 -132 -360 -152 -3 -3 -27 -16 -53
-30 -56 -29 -61 -32 -142 -85 -136 -91 -230 -169 -360 -300 -56 -55 -114 -118
-130 -140 -17 -22 -37 -47 -45 -56 -26 -30 -36 -43 -55 -76 -11 -18 -22 -33
-26 -33 -4 0 -9 -8 -13 -17 -6 -21 -28 -56 -38 -63 -14 -11 -135 -257 -167
-340 -66 -172 -105 -333 -130 -535 -9 -73 -7 -422 3 -464 3 -14 8 -45 11 -71
3 -25 18 -100 34 -166 72 -293 190 -536 390 -804 60 -81 287 -314 336 -346 17
-10 36 -27 43 -36 7 -10 19 -18 27 -18 7 0 15 -4 17 -8 2 -4 26 -23 53 -42 28
-19 60 -44 73 -55 13 -11 24 -18 25 -16 1 3 20 -7 42 -21 22 -14 78 -44 125
-67 47 -23 93 -47 103 -52 120 -64 445 -160 627 -184 121 -17 183 -20 370 -19
170 1 242 6 345 23 311 52 584 151 834 302 34 22 67 39 71 39 5 0 10 4 12 8 2
5 31 27 65 50 69 47 179 137 236 194 21 21 43 38 48 38 5 0 9 3 9 8 0 4 19 28
43 53 90 99 106 118 161 192 75 102 160 243 210 347 22 47 41 87 41 90 1 3 7
19 14 35 14 33 72 204 75 220 1 6 5 19 9 30 3 11 8 31 11 45 3 14 8 36 11 50
15 66 17 83 32 200 9 77 9 408 0 465 -4 22 -9 60 -12 84 -3 24 -10 65 -16 90
-6 25 -12 53 -14 61 -2 8 -10 42 -19 75 -9 33 -18 67 -21 76 -22 96 -194 460
-235 499 -3 3 -11 17 -18 31 -8 14 -27 41 -43 60 -16 19 -29 37 -29 41 0 4 -6
13 -13 20 -7 7 -23 27 -35 43 -205 266 -591 551 -917 674 -33 13 -69 27 -80
31 -32 13 -59 23 -70 25 -5 2 -41 12 -80 23 -191 57 -369 83 -606 88 -113 2
-208 2 -210 0z"/>
</g>
</svg>
